<?xml version="1.0" encoding="utf-8"?>
<!-- Generator: Adobe Illustrator 23.0.1, SVG Export Plug-In . SVG Version: 6.00 Build 0)  -->
<svg version="1.1" id="Layer_1" xmlns="http://www.w3.org/2000/svg" xmlns:xlink="http://www.w3.org/1999/xlink" x="0px" y="0px"
	 viewBox="0 0 697 657" style="enable-background:new 0 0 697 657;" xml:space="preserve">
<style type="text/css">
	.st0{fill-rule:evenodd;clip-rule:evenodd;fill:url(#SVGID_1_);}
	.st1{fill-rule:evenodd;clip-rule:evenodd;fill:#F4F4FC;}
	.st2{display:none;}
	.st3{display:inline;fill:none;}
	.st4{fill:none;}
</style>
<g>
	
		<linearGradient id="SVGID_1_" gradientUnits="userSpaceOnUse" x1="43.3981" y1="724.4541" x2="44.0845" y2="724.9313" gradientTransform="matrix(0 537.9998 -424.0003 0 307716.2188 -23081.9902)">
		<stop  offset="0" style="stop-color:#67b3e4"/>
		<stop  offset="1" style="stop-color:#67b3e4"/>
	</linearGradient>
	<path class="st0" d="M328.1,137c60.4-62.7,169.4,48.7,259.7,176.1c90.3,127.3,151.9,187.8,73,269.8c-78.9,81.9-247.2,114.5-332.7,0
		C242.6,468.3,267.7,199.7,328.1,137L328.1,137z"/>
	<path class="st1" d="M14.9,304.5C-37,254.7,55.2,164.7,160.5,90.2C265.8,15.6,315.9-35.2,383.7,29.9c67.8,65.1,94.7,204.1,0,274.6
		C288.9,375.1,66.8,354.4,14.9,304.5L14.9,304.5z"/>
	<g class="st2">
		<path class="st3" d="M344,45.1L364.1,25l20.1,20.1L404.3,25l20.1,20.1L444.4,25"/>
		<path class="st3" d="M344,63.1L364.1,43l20.1,20.1L404.3,43l20.1,20.1L444.4,43"/>
		<path class="st3" d="M344,81.1L364.1,61l20.1,20.1L404.3,61l20.1,20.1L444.4,61"/>
		<path class="st3" d="M344,99.1L364.1,79l20.1,20.1L404.3,79l20.1,20.1L444.4,79"/>
	</g>
	<path class="st4" d="M0,0"/>
</g>
</svg>
